# xmcd
#
# Track frame offsets:
#	150
#	25742
#	42775
#	61935
#	83700
#	112238
#	131322
#	149191
#	179246
#	204801
#	221181
#	253964
#
# Disc length: 3612 seconds
#
# Revision: 2
# Processed by: cddbd v1.4PL0 Copyright (c) Steve Scherf et al.
# Submitted via: audiograbber 1.82.01
#
DISCID=ba0e1a0c
DTITLE=Night Block - Carrying the Torch
DYEAR=2002
DGENRE=Rock and Roll
TTITLE0=Hoochie Coochie Man
TTITLE1=Spellbind of the You
TTITLE2=Can't I Walk You Home
TTITLE3=One Drop of Love
TTITLE4=Carrying the Torch
TTITLE5=Smoking Gun
TTITLE6=Jamming in a Jungle
TTITLE7=Life Ain't Easy
TTITLE8=Rock Me Baby
TTITLE9=Lucille
TTITLE10=Old Love
TTITLE11=Since I Met You Baby
EXTD=
EXTT0=
EXTT1=
EXTT2=
EXTT3=
EXTT4=
EXTT5=
EXTT6=
EXTT7=
EXTT8=
EXTT9=
EXTT10=
EXTT11=
PLAYORDER=
